<?xml version="1.0" encoding="UTF-8"?>
<svg version="1.1" xmlns="http://www.w3.org/2000/svg" width="1024" height="1024">
<path d="M0 0 C337.92 0 675.84 0 1024 0 C1024 337.92 1024 675.84 1024 1024 C686.08 1024 348.16 1024 0 1024 C0 686.08 0 348.16 0 0 Z " fill="#6CAF42" transform="translate(0,0)"/>
<path d="M0 0 C0 33.66 0 67.32 0 102 C-17.325 102.495 -17.325 102.495 -35 103 C-48.79982923 106.94280835 -61.20953626 111.18194186 -70 123 C-71.23797504 125.39216818 -71.23797504 125.39216818 -71 128 C-69.34506113 130.01090685 -67.81271089 131.55174175 -65.875 133.25 C-58.2229856 140.40284583 -52.16827939 148.57038338 -46 157 C-45.32066406 157.90621094 -44.64132812 158.81242188 -43.94140625 159.74609375 C-38.59201391 167.07216686 -34.23880132 174.99606896 -30 183 C-29.6582373 183.64259766 -29.31647461 184.28519531 -28.96435547 184.94726562 C-15.06394438 211.5393564 -7.17130741 242.10608627 -6.69140625 272.09765625 C-6.676008 273.03726196 -6.66060974 273.97686768 -6.64474487 274.94494629 C-6.33748135 298.03123254 -7.309726 319.57823226 -13 342 C-13.31614258 343.26505371 -13.63228516 344.53010742 -13.95800781 345.83349609 C-21.96208128 376.91954405 -35.41714221 406.67827606 -54.77490234 432.37353516 C-56.00367968 434.00488522 -57.21501752 435.64822204 -58.42578125 437.29296875 C-64.04349175 444.84053861 -70.16326683 451.80726417 -76.66601562 458.60302734 C-77.80358673 459.79431246 -78.92678224 460.99929764 -80.046875 462.20703125 C-86.07159502 468.52783794 -93.02998281 473.77269487 -100 479 C-100.82717529 479.62148926 -101.65435059 480.24297852 -102.5065918 480.88330078 C-128.96179242 500.46631749 -158.41080054 512.27584063 -190.25 519.75 C-191.08805176 519.94891846 -191.92610352 520.14783691 -192.78955078 520.3527832 C-208.39247003 523.85061017 -223.71189479 524.34593047 -239.64257812 524.31567383 C-243.09798085 524.31252462 -246.55251554 524.33601549 -250.0078125 524.36132812 C-268.8979425 524.41691288 -287.21047441 522.9063807 -305.4375 517.6875 C-307.07223267 517.23346802 -307.07223267 517.23346802 -308.73999023 516.77026367 C-318.05605104 514.11931827 -326.95615708 510.91650559 -335.6875 506.703125 C-338.92331238 505.14908353 -341.40120199 504.04989983 -345 503.75 C-356.56958834 508.57066181 -364.83953231 522.22812232 -369.5 533.4375 C-370.02325286 534.95049057 -370.52609624 536.4708338 -371 538 C-371.4125 539.19625 -371.825 540.3925 -372.25 541.625 C-375.30793281 555.38569766 -372.77080668 569.96353862 -365.44140625 581.953125 C-357.37614981 593.40622629 -343.54504951 600.14703181 -330 603 C-319.91267378 604.67553848 -310.09289561 605.29839679 -299.86083984 605.30297852 C-298.41488179 605.31066738 -296.96892811 605.31921882 -295.52297974 605.32855225 C-292.44082555 605.3466435 -289.35872969 605.35880078 -286.27653122 605.36609077 C-281.37997891 605.37773221 -276.48355402 605.40325667 -271.58706665 605.43040466 C-263.8246338 605.47185561 -256.06219434 605.50435011 -248.29970419 605.53287882 C-234.44000221 605.58392892 -220.58035822 605.64682031 -206.72074664 605.71821922 C-201.87623084 605.74277918 -197.03172957 605.76224102 -192.18717676 605.77773184 C-147.66176224 605.92735992 -147.66176224 605.92735992 -131.4375 608.75 C-130.39505127 608.9255542 -129.35260254 609.1011084 -128.27856445 609.28198242 C-78.34301926 617.98613383 -39.47012173 641.40413697 -9.82421875 682.90234375 C3.69016844 702.25008047 13.02682096 723.7756133 21.1875 745.8125 C21.47984528 746.60186951 21.77219055 747.39123901 22.07339478 748.20452881 C22.90244152 750.45327891 23.72471297 752.70433442 24.54296875 754.95703125 C24.91710403 755.98043861 24.91710403 755.98043861 25.29879761 757.02452087 C27 761.76245437 27 761.76245437 27 764 C19.31277624 766.92137538 11.62421995 769.83919805 3.93363953 772.75172424 C0.80875859 773.93524997 -2.3156301 775.12001383 -5.43896484 776.30761719 C-24.31897433 783.48599917 -43.3202237 789.85995311 -62.63745117 795.75390625 C-69.1248945 797.74445735 -75.49181685 799.8574893 -81.79516602 802.37646484 C-84 803 -84 803 -87 802 C-88.08398438 800.00073242 -88.08398438 800.00073242 -89.09375 797.35546875 C-89.47853516 796.37811768 -89.86332031 795.4007666 -90.25976562 794.39379883 C-90.66904297 793.33572021 -91.07832031 792.2776416 -91.5 791.1875 C-101.19667087 767.10204697 -113.95091583 741.03314335 -139 730 C-154.32562062 724.08657725 -168.3435297 722.70472636 -184.64208984 722.72875977 C-186.61946831 722.72436624 -188.59684493 722.71906182 -190.57421875 722.71292114 C-194.81653345 722.70146454 -199.05879848 722.69596488 -203.30112839 722.69503975 C-210.02881087 722.69308806 -216.75639186 722.67497238 -223.48403931 722.65428162 C-240.20018723 722.60523342 -256.9163627 722.5742941 -273.63256836 722.55297852 C-286.61802497 722.53639204 -299.60339414 722.51339055 -312.58879244 722.46995777 C-319.25575346 722.44835944 -325.92254767 722.44010687 -332.5895412 722.44235051 C-336.76643274 722.44066535 -340.94321845 722.42650487 -345.12007141 722.40913773 C-347.03342024 722.40361133 -348.94679171 722.40298395 -350.86014175 722.40807533 C-367.43321344 722.44749621 -384.44753472 721.44067655 -400.3125 716.25 C-401.12605957 715.99395996 -401.93961914 715.73791992 -402.77783203 715.47412109 C-441.37124669 702.96650732 -469.3735755 677.45352521 -488.0625 641.5625 C-502.51715878 612.68857583 -505.55475016 580.40963522 -499 549 C-498.85546387 548.2790918 -498.71092773 547.55818359 -498.56201172 546.81542969 C-489.73555193 503.4357746 -464.05921821 467.16353151 -428.4375 441.4375 C-427.82962646 440.99559326 -427.22175293 440.55368652 -426.59545898 440.09838867 C-422.24218284 437 -422.24218284 437 -420 437 C-420.60585938 436.23558594 -421.21171875 435.47117187 -421.8359375 434.68359375 C-436.97662165 415.40669448 -449.20930904 394.92588839 -458 372 C-458.27295898 371.30036133 -458.54591797 370.60072266 -458.82714844 369.87988281 C-478.21229269 319.34432135 -477.02148413 260.01646106 -457 210 C-456.6174707 209.04303223 -456.23494141 208.08606445 -455.84082031 207.10009766 C-446.92280677 185.15644338 -436.06197638 164.55184318 -420.42382812 146.65185547 C-418.35035598 144.24631491 -416.40387339 141.74333316 -414.4375 139.25 C-405.93434856 128.92253607 -396.33889538 120.28967841 -385.66992188 112.26416016 C-384.12495229 111.09459107 -382.60053065 109.89801143 -381.078125 108.69921875 C-355.89960528 89.11978974 -325.96805662 76.14400143 -295 69 C-294.20851563 68.81453613 -293.41703125 68.62907227 -292.6015625 68.43798828 C-290.19585667 67.8808416 -287.78686984 67.34228637 -285.375 66.8125 C-284.6845459 66.65749023 -283.9940918 66.50248047 -283.28271484 66.34277344 C-269.65090583 63.47981286 -255.98942664 62.66791039 -242.09863281 62.73925781 C-239.63321184 62.74996434 -237.168524 62.73929093 -234.703125 62.7265625 C-218.73477932 62.71041084 -203.22380742 64.19567512 -187.625 67.6875 C-185.51502339 68.15879623 -183.40308246 68.62140417 -181.2890625 69.07421875 C-180.38881348 69.27619873 -179.48856445 69.47817871 -178.56103516 69.6862793 C-175.70909166 70.03563558 -173.73903765 69.86043366 -171 69 C-169.38594449 67.76971897 -169.38594449 67.76971897 -168.1328125 66.12109375 C-167.64329102 65.53344238 -167.15376953 64.94579102 -166.64941406 64.34033203 C-166.14635742 63.71239746 -165.64330078 63.08446289 -165.125 62.4375 C-164.06004474 61.15222036 -162.99494151 59.8670633 -161.9296875 58.58203125 C-161.42276367 57.96150879 -160.91583984 57.34098633 -160.39355469 56.70166016 C-152.18073432 46.67304103 -143.23181093 37.96837022 -133 30 C-131.97261719 29.18273437 -130.94523437 28.36546875 -129.88671875 27.5234375 C-114.01197534 15.28710084 -94.49705754 8.30022724 -75.125 3.8125 C-74.46677246 3.65740967 -73.80854492 3.50231934 -73.13037109 3.3425293 C-48.8947307 -1.92796135 -24.86062628 0 0 0 Z " fill="#151716" transform="translate(741,101)"/>
<path d="M0 0 C18.33715646 16.97707329 31.56146074 41.27255461 33.22338867 66.37402344 C34.29939779 100.40485399 27.67704138 131.62517635 3.90527344 157.25878906 C1.48254793 159.80229856 -0.96880154 162.31360486 -3.4375 164.8125 C-4.22423096 165.61324951 -5.01096191 166.41399902 -5.8215332 167.23901367 C-13.39856571 174.75496002 -21.5309044 180.74917904 -31.25 185.1875 C-31.9716333 185.52209229 -32.6932666 185.85668457 -33.43676758 186.20141602 C-55.14073327 195.97975918 -84.02502445 197.79687128 -107 191 C-107.63824707 190.81195801 -108.27649414 190.62391602 -108.93408203 190.43017578 C-135.74299311 182.23294853 -157.74195055 162.39710179 -171 138 C-183.81407675 112.67477976 -186.94385516 82.49542647 -180 55 C-179.83371094 54.34032227 -179.66742188 53.68064453 -179.49609375 53.00097656 C-171.68206721 23.0037969 -152.52055032 -0.96019737 -126.10571289 -16.85205078 C-85.74341448 -39.53746783 -33.99701361 -29.46114262 0 0 Z " fill="#6CAF42" transform="translate(576,309)"/>
<path d="M0 0 C3.64214008 3.20701715 5.6773957 6.81078074 7.75 11.125 C8.06582031 11.75792969 8.38164063 12.39085937 8.70703125 13.04296875 C11 17.71824269 11 17.71824269 11 20 C11.99 20.33 12.98 20.66 14 21 C14 21.66 14 22.32 14 23 C15.32 23.33 16.64 23.66 18 24 C18 27.3 18 30.6 18 34 C17.01 34 16.02 34 15 34 C14.75878418 33.42145264 14.51756836 32.84290527 14.26904297 32.24682617 C8.27248558 17.74485157 8.27248558 17.74485157 0.99609375 3.86328125 C0 2 0 2 0 0 Z " fill="#0D140D" transform="translate(637,864)"/>
<path d="M0 0 C0 0.66 0 1.32 0 2 C3.3 2.33 6.6 2.66 10 3 C10 3.33 10 3.66 10 4 C-2.423929 3.37557376 -14.68487349 1.69177817 -27 0 C-27 -0.33 -27 -0.66 -27 -1 C-18.03925565 -3.38953183 -8.92431215 -1.7173934 0 0 Z " fill="#76B751" transform="translate(614,708)"/>
<path d="M0 0 C0.99 0.33 1.98 0.66 3 1 C4.07593968 3.60650176 4.92205759 6.0511132 5.6875 8.75 C5.90881592 9.51046631 6.13013184 10.27093262 6.3581543 11.05444336 C8.19660399 17.81713489 8.54839661 23.99271003 8 31 C7.67 31 7.34 31 7 31 C6.49095343 29.12743583 5.99317545 27.25180659 5.5 25.375 C5.2215625 24.33085937 4.943125 23.28671875 4.65625 22.2109375 C4.00881404 19.04312582 3.8838708 16.22258533 4 13 C3.34 12.67 2.68 12.34 2 12 C0.58355646 7.90805199 -0.26260116 4.33291912 0 0 Z " fill="#1B1D1C" transform="translate(721,314)"/>
<path d="M0 0 C0 0.33 0 0.66 0 1 C-4.02018644 1.81572257 -8.04125772 2.62699975 -12.0625 3.4375 C-13.7630957 3.78264648 -13.7630957 3.78264648 -15.49804688 4.13476562 C-20.98641129 5.23883893 -26.44485836 6.29855251 -32 7 C-29.27835324 4.27835324 -26.70485455 3.89427524 -23 3 C-21.68 3 -20.36 3 -19 3 C-19 2.34 -19 1.68 -19 1 C-13.34439238 -2.30454672 -6.18867042 -1.65031211 0 0 Z " fill="#7AB557" transform="translate(682,102)"/>
<path d="M0 0 C7.59 0.33 15.18 0.66 23 1 C20.03251185 3.96748815 16.67787892 3.50414926 12.6875 3.6875 C11.92759766 3.73455078 11.16769531 3.78160156 10.38476562 3.83007812 C6.40955463 4.04075395 2.88778199 4.03208584 -1 3 C-0.67 2.01 -0.34 1.02 0 0 Z " fill="#1E221D" transform="translate(692,101)"/>
<path d="M0 0 C0.99 0.33 1.98 0.66 3 1 C3.1139891 12.05694276 2.91050683 22.97636372 2 34 C1.67 34 1.34 34 1 34 C0.67 22.78 0.34 11.56 0 0 Z " fill="#63B033" transform="translate(394,373)"/>
<path d="M0 0 C0.66 0.33 1.32 0.66 2 1 C1.030625 1.556875 0.06125 2.11375 -0.9375 2.6875 C-4.18991279 4.68035805 -4.18991279 4.68035805 -4.875 7.75 C-4.91625 8.4925 -4.9575 9.235 -5 10 C-7.64 10 -10.28 10 -13 10 C-9.23156953 5.87827917 -5.11095695 2.36931779 0 0 Z " fill="#78B850" transform="translate(449,293)"/>
<path d="M0 0 C5.06316683 -0.15639125 9.50398438 0.37233929 14.4375 1.5 C15.67371094 1.7784375 16.90992188 2.056875 18.18359375 2.34375 C19.57771484 2.66859375 19.57771484 2.66859375 21 3 C21 3.33 21 3.66 21 4 C18.91673869 4.02709444 16.83337559 4.04643873 14.75 4.0625 C13.00976562 4.07990234 13.00976562 4.07990234 11.234375 4.09765625 C8.59022872 4.01782092 6.50173909 3.78643778 4 3 C4 2.34 4 1.68 4 1 C2.68 0.67 1.36 0.34 0 0 Z " fill="#0C100D" transform="translate(538,167)"/>
<path d="M0 0 C5.7809725 0.63065155 11.3443706 1.65155132 17 3 C14.35261084 4.4606285 13.10551666 5 10 5 C10.33 4.34 10.66 3.68 11 3 C10.34 3.66 9.68 4.32 9 5 C8.01 5 7.02 5 6 5 C6 4.01 6 3.02 6 2 C4.68 2.33 3.36 2.66 2 3 C2 2.34 2 1.68 2 1 C1.34 0.67 0.68 0.34 0 0 Z " fill="#7ABB55" transform="translate(343,818)"/>
<path d="M0 0 C0.33 0.99 0.66 1.98 1 3 C-0.175625 3.433125 -1.35125 3.86625 -2.5625 4.3125 C-5.37295238 5.35396196 -8.09412513 6.48955695 -10.8125 7.75 C-14 9 -14 9 -17 8 C-11.39 5.36 -5.78 2.72 0 0 Z " fill="#79B858" transform="translate(610,599)"/>
<path d="M0 0 C2.98479194 4.47718792 4 8.63824093 4 14 C4.66 14 5.32 14 6 14 C5.67 15.32 5.34 16.64 5 18 C2.59881473 15.59881473 2.24779139 13.94503958 1.375 10.6875 C1.11460937 9.74261719 0.85421875 8.79773438 0.5859375 7.82421875 C0.02520352 5.12148098 -0.1101876 2.74968152 0 0 Z " fill="#090F06" transform="translate(275,442)"/>
<path d="M0 0 C0.66 0.33 1.32 0.66 2 1 C1.3125 2.9375 1.3125 2.9375 0 5 C-0.721875 5.12375 -1.44375 5.2475 -2.1875 5.375 C-6.4041997 6.31204438 -8.91348916 9.09138604 -12 12 C-10.56394807 8.61181498 -8.79533421 6.6813402 -6 4.3125 C-5.29875 3.71050781 -4.5975 3.10851562 -3.875 2.48828125 C-2 1 -2 1 0 0 Z " fill="#7BB957" transform="translate(685,211)"/>
<path d="M0 0 C2.55803184 3.83704776 4.34505724 7.75712791 3.625 12.4375 C3.41875 12.953125 3.2125 13.46875 3 14 C3 13.34 3 12.68 3 12 C2.01 11.67 1.02 11.34 0 11 C0 7.37 0 3.74 0 0 Z " fill="#75B252" transform="translate(241,709)"/>
<path d="M0 0 C-0.99 1.485 -0.99 1.485 -2 3 C-5.0390625 3.29296875 -5.0390625 3.29296875 -8.625 3.1875 C-9.81351563 3.16042969 -11.00203125 3.13335937 -12.2265625 3.10546875 C-13.14179687 3.07066406 -14.05703125 3.03585938 -15 3 C-11.00349459 -0.99650541 -5.31261102 -0.09004425 0 0 Z " fill="#0F140E" transform="translate(678,104)"/>
<path d="M0 0 C4.51617599 -0.07654536 8.59085217 -0.10228696 13 1 C13 1.33 13 1.66 13 2 C6.565 2.495 6.565 2.495 0 3 C0 2.01 0 1.02 0 0 Z " fill="#76BA4F" transform="translate(669,101)"/>
<path d="M0 0 C1.32 0 2.64 0 4 0 C4.33 1.32 4.66 2.64 5 4 C3.35 5.32 1.7 6.64 0 8 C-0.38063221 5.6739143 -0.71269945 3.33944736 -1 1 C-0.67 0.67 -0.34 0.34 0 0 Z " fill="#72B44C" transform="translate(578,459)"/>
<path d="M0 0 C2 1.375 2 1.375 4 3 C4 3.66 4 4.32 4 5 C-1.41176471 9 -1.41176471 9 -4 9 C-4.33 8.01 -4.66 7.02 -5 6 C-3.02 5.34 -1.04 4.68 1 4 C0.67 2.68 0.34 1.36 0 0 Z " fill="#7AB956" transform="translate(317,533)"/>
<path d="M0 0 C0.99 0.99 1.98 1.98 3 3 C2.6875 6.1875 2.6875 6.1875 2 9 C1.01 9 0.02 9 -1 9 C-0.67 6.03 -0.34 3.06 0 0 Z " fill="#77B651" transform="translate(396,366)"/>
<path d="M0 0 C0 4.05345102 -1.58160112 5.8215329 -4 9 C-4.99 9.33 -5.98 9.66 -7 10 C-5.6062718 5.56541027 -3.39417765 3.12621626 0 0 Z " fill="#0B0F0C" transform="translate(578,161)"/>
<path d="M0 0 C-1.43011973 0.86646667 -2.86940619 1.71781829 -4.3125 2.5625 C-5.51326172 3.27599609 -5.51326172 3.27599609 -6.73828125 4.00390625 C-9 5 -9 5 -12 4 C-8.31497587 -0.23095363 -5.4879376 -1.82931253 0 0 Z " fill="#7DBC58" transform="translate(630,118)"/>
<path d="M0 0 C3.9492568 0.55105909 7.34920174 1.38935371 11 3 C11 3.33 11 3.66 11 4 C3.375 3.125 3.375 3.125 0 2 C0 1.34 0 0.68 0 0 Z " fill="#0F190D" transform="translate(417,611)"/>
<path d="M0 0 C0.99 0.33 1.98 0.66 3 1 C3 3.97 3 6.94 3 10 C2.34 9.67 1.68 9.34 1 9 C0.5859375 6.93359375 0.5859375 6.93359375 0.375 4.4375 C0.30023438 3.61121094 0.22546875 2.78492188 0.1484375 1.93359375 C0.09945313 1.29550781 0.05046875 0.65742188 0 0 Z " fill="#64A83B" transform="translate(394,373)"/>
<path d="M0 0 C1.32 0 2.64 0 4 0 C3.43628586 3.26954202 2.50037734 4.82575883 0 7 C0 4.69 0 2.38 0 0 Z " fill="#74B74C" transform="translate(307,258)"/>
<path d="M0 0 C1 2 1 2 0.3125 5.0625 C-1 8 -1 8 -3.125 8.875 C-3.74375 8.91625 -4.3625 8.9575 -5 9 C-3.7508258 5.54074837 -2.32472205 2.85306797 0 0 Z " fill="#78B755" transform="translate(696,518)"/>
<path d="M0 0 C2.97 0.33 5.94 0.66 9 1 C8.67 1.66 8.34 2.32 8 3 C5.36 3 2.72 3 0 3 C0 2.01 0 1.02 0 0 Z " fill="#64AC3A" transform="translate(477,282)"/>
<path d="M0 0 C0 0.99 0 1.98 0 3 C-2 4.6875 -2 4.6875 -4 6 C-4.66 5.67 -5.32 5.34 -6 5 C-5.67 3.68 -5.34 2.36 -5 1 C-3.68 1 -2.36 1 -1 1 C-0.67 0.67 -0.34 0.34 0 0 Z " fill="#7AB956" transform="translate(326,239)"/>
<path d="M0 0 C0 3.20395416 -0.74335022 5.09399739 -2 8 C-2.99 7.67 -3.98 7.34 -5 7 C-3.35 4.69 -1.7 2.38 0 0 Z " fill="#79BB53" transform="translate(380,619)"/>
</svg>
